<svg xmlns="http://www.w3.org/2000/svg" width="83" height="62" fill="none"><path fill="#fff" fill-rule="evenodd" d="M18.34 8.8c.14-1.04.24-2.16.39-3.18l.13-1.05.1-.8c.01-.12 0-.23.05-.23h1.87l.15 1.19.14 1.18.15 1.19c.06.4.1.79.14 1.19l.44 3.55c.03.18.03.15-.16.15h-1l-.17-1.86-.02-.26h-1.23l-.05.53-.1 1.06c0 .17-.03.36-.05.53h-1.17l.06-.55c.12-.85.21-1.78.33-2.65Zm1.25-1.53c-.03.18-.03.35-.05.53l-.1 1.07h1l-.3-3.5c-.02-.07-.02-.2-.02-.27 0-.17-.04-.36-.04-.54h-.26c-.05 0-.04.05-.04.11l-.03.42c-.04.51-.1 1.13-.12 1.64l-.04.54Zm8.33.48.02 2.1.02.25c0 .2 0 .57.07.72.14.29.45.3.76.3h6.02c.17 0 .34 0 .47-.05.1-.04.17-.09.23-.17.14-.19.12-.55.12-.78l.02-.25.02-2.04-.01-.51-.01-1.55-.02-.5c0-.52-.05-.87-.68-.87h-6.32c-.34 0-.56.13-.63.4-.03.09-.05.37-.04.46l-.02.49-.02 2Zm30.2-.74-.17 1.86h1l-.04-.54c-.03-.47-.12-1-.14-1.48l-.01-.12c0-.08 0-.2-.02-.28l-.12-1.62-.02-.27h-.29l-.02.27-.06.82-.1 1.36Zm4.1-2.45v3.38h.37c.66 0 .85-.2.85-.82l.01-.27V5.64l-.01-.26c0-.9-.45-.82-1.21-.82Zm-39.75 4.3h1.05c.06 0 .03.09.03.17v.21c-.04.37 0 .79 0 1.16 0 .47.2.73.7.72.56-.01.6-.31.65-.76v-.24c.03-.19 0-.42 0-.6l-.01-.36a1.4 1.4 0 0 0-.17-.58c-.32-.42-1.52-.22-2.01-1-.36-.58-.3-1.5-.3-2.22 0-.59.11-1.11.39-1.43a.95.95 0 0 1 .24-.2c.27-.17.63-.25 1-.27h.35c.26.01.52.06.72.13.22.08.4.2.52.36.5.62.36 1.8.36 2.64h-1.1l.01-.82c0-.33.04-.93-.12-1.15-.2-.25-.66-.27-.92-.15a.42.42 0 0 0-.2.21c-.06.1-.08.2-.1.33l-.01.2v.2c0 .46-.04 1.05.12 1.45.23.53 1.19.28 1.83.83.45.37.55 1.1.55 1.73 0 1 .07 2.12-.88 2.5a2.4 2.4 0 0 1-.76.15h-.33a2.76 2.76 0 0 1-.72-.13c-.4-.13-.63-.4-.77-.79-.18-.49-.15-1.3-.15-1.87 0-.08.03-.26.03-.41Zm4.38 1.85a9.1 9.1 0 0 1-.04-1.1l-.01-.35-.01-1.5V6.27l.02-.74c0-.61.04-1.33.53-1.73.28-.24.77-.34 1.17-.34h6.56c.56 0 1.17.15 1.45.66.09.14.15.33.19.51.03.14.05.33.05.49l.02.16V5.96l.02 1.39-.01 2.24c0 .13-.02.21-.01.34 0 .37 0 .61-.08.98-.06.35-.23.67-.52.87-.25.18-.68.29-1.11.29H28.5c-.97 0-1.54-.4-1.66-1.36Zm10.82.22a7.7 7.7 0 0 1-.09-1.58l.03-.35c0-.06-.02-.13.04-.13h1.05l-.02.24v.48c0 .28-.01.93.06 1.14.04.13.1.21.2.29a1 1 0 0 0 .79.03c.34-.16.33-.7.33-1.1 0-.42.01-1.08-.22-1.38-.11-.16-.3-.2-.51-.25l-.61-.16c-.3-.08-.65-.26-.83-.52-.4-.6-.34-1.47-.34-2.22 0-.4.05-.91.24-1.26.04-.07.06-.12.13-.2.13-.17.31-.3.54-.37.22-.08.5-.13.79-.13.55 0 1.13.04 1.5.47.46.51.4 1.46.4 2.17l-.02.5h-1.1c0-.38.05-1.53-.03-1.8a.51.51 0 0 0-.17-.27l-.17-.09c-.24-.09-.73-.07-.88.27-.12.26-.1.87-.1 1.23l.02.17c0 .3.01.55.15.8.25.5 1.62.2 2.08 1.14.17.33.26.78.26 1.27 0 .53.02 1.07-.08 1.57-.06.27-.13.44-.28.65-.25.38-.86.53-1.34.53-.93 0-1.6-.16-1.82-1.14Zm4.59.57a2.01 2.01 0 0 1-.3-1l-.02-3.56.01-1.65.02-.16c0-.4.1-.83.36-1.13l.04-.05c.14-.17.34-.28.54-.36a3 3 0 0 1 1.65-.02c.13.05.35.13.45.22.08.08.14.12.21.23.1.15.16.28.22.46.14.51.1 1.21.1 1.78l-.01.33h-1.14V5.21c0-.3 0-.57-.25-.71a.68.68 0 0 0-.24-.08c-.4-.05-.7.06-.78.47l-.03.3v.63l-.02.96c0 .66-.02 1.6.01 2.25v.7c0 .08.02.12.01.21 0 .63-.06 1.18.68 1.18.49 0 .67-.24.67-.73V8.88h1.14c0 .46.03 1.32-.02 1.76-.04.3-.12.58-.25.8-.07.1-.14.19-.24.27l-.15.1c-.23.16-.63.24-1.04.26h-.28c-.4-.02-.78-.1-1.01-.25-.15-.1-.23-.17-.33-.32Zm4.16.44V3.58c0-.03 0-.04.04-.04h1.1V7.2h1.22V3.54h1.14V12h-1.14V8.22h-1.22v3.77h-1.1c-.04 0-.04-.01-.04-.05Zm4.49.05V3.54H52c.03 0 .04.01.04.04v8.36c0 .04-.01.05-.04.05h-1.1Zm2.1 0V3.54h1.15v7.42h1.88V12h-3.02Zm4.24-6.37.24-1.98c0-.05-.01-.1.04-.1h1.87c0 .08.03.22.04.3l.11.89.07.6.22 1.77.14 1.19.15 1.18.07.6.22 1.77c.03.18.03.15-.16.15h-1c0-.17-.04-.36-.04-.53l-.06-.53-.1-1.06h-1.22l-.08.8c0 .1 0 .17-.02.26l-.04.53-.06.53h-1.17l.26-2.13.13-1.07.13-1.05.26-2.12Zm3.83 6.32V3.58c0-.03.01-.04.04-.04h1.42c.37 0 .72.02 1.02.1.86.24 1.02 1.03 1.02 1.81l.01.27V6c0 .8.08 1.85-.37 2.42-.09.11-.28.3-.42.32 0 .07.04.16.05.22l.06.2c.07.24.8 2.75.8 2.83h-1.2l-.7-2.7-.05-.19c-.03-.09-.03-.15-.08-.15h-.45v3.04h-1.1c-.04 0-.05-.01-.05-.05ZM68.6.96H14.06c-.9 0-1.65.74-1.65 1.65v10.31c0 .9.75 1.65 1.65 1.65H68.6c.91 0 1.65-.74 1.65-1.65V2.61c0-.91-.74-1.65-1.65-1.65Z" clip-rule="evenodd"/><path fill="#fff" d="M14.88 48.66h3.58c.92 0 1.38.46 1.38 1.38v4.18c0 4.78-2.39 7.17-7.16 7.17H7.16C2.4 61.39 0 59 0 54.22V24.46c0-4.77 2.39-7.16 7.16-7.16h5.52c4.77 0 7.16 2.39 7.16 7.16v4.2c0 .91-.46 1.37-1.38 1.37h-3.58c-.92 0-1.38-.46-1.38-1.38v-1.27c0-1.57-.2-2.6-.6-3.05-.4-.46-1.4-.7-2.98-.7-1.36 0-2.3.22-2.81.64-.52.42-.77 1.46-.77 3.11V51.3c0 1.66.25 2.7.77 3.12.51.42 1.45.63 2.8.63.7 0 1.21-.02 1.53-.05.3-.04.66-.17 1.04-.39.39-.22.65-.6.8-1.13.15-.53.22-1.26.22-2.18v-1.26c0-.92.46-1.38 1.38-1.38Zm7.16 10.8V18.68c0-.92.46-1.38 1.38-1.38H27c.92 0 1.38.46 1.38 1.38V53.4c0 .62.12 1.05.36 1.3.24.23.67.35 1.3.35h6.11c.92 0 1.38.46 1.38 1.38V60c0 .92-.46 1.38-1.38 1.38H23.97c-.73 0-1.24-.14-1.51-.41-.28-.28-.42-.79-.42-1.52Zm30.7-8.7V18.67c0-.92.46-1.38 1.38-1.38h3.58c.92 0 1.38.46 1.38 1.38v35.54c0 4.78-2.39 7.17-7.16 7.17h-5.57c-4.78 0-7.17-2.39-7.17-7.17V18.68c0-.92.46-1.38 1.38-1.38h3.58c.92 0 1.38.46 1.38 1.38v32.07c0 1.7.26 2.83.77 3.42.52.59 1.4.88 2.65.88h.33c1.32 0 2.23-.28 2.73-.85s.74-1.72.74-3.45Zm9.65 8.7V19.23c0-.74.13-1.24.41-1.52.28-.27.78-.41 1.52-.41h10.25c4.77 0 7.16 2.39 7.16 7.16v9.7c0 .89-.31 1.95-.94 3.2-.18.33-.14.64.11.94a6.22 6.22 0 0 1 1.77 4.4v11.52c0 4.78-2.4 7.17-7.17 7.17H64.32c-1.29 0-1.93-.64-1.93-1.93ZM72.9 41.6h-2.53c-.63 0-1.06.12-1.3.36s-.36.67-.36 1.3V53.4c0 .62.12 1.05.36 1.3.24.23.67.35 1.3.35h1.93c1.47 0 2.5-.22 3.11-.66.6-.44.91-1.47.91-3.09v-5.95c0-1.5-.27-2.5-.8-2.97-.53-.48-1.4-.74-2.62-.78Zm-1.54-17.96h-1c-.62 0-1.05.12-1.29.36-.24.23-.36.67-.36 1.3v8.31c0 .59.12 1.01.36 1.27s.67.39 1.3.39h.99c1.47 0 2.5-.22 3.11-.67.61-.44.91-1.47.91-3.08v-4.14c0-1.61-.3-2.64-.9-3.08-.61-.44-1.65-.66-3.12-.66Z"/></svg>